<svg width="2538.67" height="431.345" viewBox="0 0 2538.67 431.345" xmlns="http://www.w3.org/2000/svg"><g id="svgGroup" stroke-linecap="round" fill-rule="evenodd" font-size="9pt" stroke="#ffffff" stroke-width="0.25mm" fill="#ffffff" style="stroke:#ffffff;stroke-width:0.25mm;fill:#ffffff"><path d="M 171.43 319.953 L 164.32 319.953 L 46.61 14.223 L 46.61 291.908 L 84.53 307.708 L 84.53 316.003 L 0 316.003 L 0 307.708 L 37.13 291.908 L 37.13 14.223 L 0.79 8.693 L 0.79 0.003 L 88.085 0.003 L 187.23 253.593 L 288.35 0.003 L 368.14 0.003 L 368.14 8.693 L 331.8 14.223 L 331.8 301.783 L 368.14 307.708 L 368.14 316.003 L 252.01 316.003 L 252.01 307.708 L 288.35 301.783 L 288.35 26.073 L 171.43 319.953 Z M 1634.115 316.003 L 1517.985 316.003 L 1517.985 307.708 L 1554.325 301.783 L 1554.325 14.223 L 1517.985 8.693 L 1517.985 0.003 L 1755.775 0.003 L 1755.775 90.458 L 1745.11 90.458 L 1714.695 9.878 L 1597.775 9.878 L 1597.775 158.003 L 1664.53 158.003 L 1687.835 100.728 L 1698.5 100.728 L 1698.5 225.548 L 1687.835 225.548 L 1664.53 167.483 L 1597.775 167.483 L 1597.775 301.783 L 1634.115 307.708 L 1634.115 316.003 Z M 472.815 386.708 L 496.515 318.768 L 404.875 123.638 L 378.41 119.688 L 378.41 111.788 L 476.765 111.788 L 476.765 119.688 L 449.115 124.428 L 515.08 265.443 L 562.085 129.563 L 528.115 119.688 L 528.115 111.788 L 599.215 111.788 L 599.215 119.688 L 572.355 129.563 L 483.875 386.708 A 134.251 134.251 0 0 1 478.363 400.039 Q 475.251 406.485 471.767 411.528 A 53.704 53.704 0 0 1 463.927 420.678 A 37.799 37.799 0 0 1 449.299 428.821 Q 441.115 431.343 430.55 431.343 A 66.9 66.9 0 0 1 416.393 429.929 Q 407.05 427.907 399.93 422.992 A 40.938 40.938 0 0 1 397.37 421.073 A 33.164 33.164 0 0 1 384.86 396.88 A 44.986 44.986 0 0 1 384.73 393.423 Q 384.73 381.573 391.643 374.266 Q 398.555 366.958 408.825 366.958 A 30.508 30.508 0 0 1 416.768 367.958 A 25.894 25.894 0 0 1 422.255 370.118 A 23.114 23.114 0 0 1 430.988 378.347 A 28.16 28.16 0 0 1 431.735 379.598 A 33.024 33.024 0 0 0 427.385 387.819 A 27.39 27.39 0 0 0 425.81 396.978 A 19.884 19.884 0 0 0 426.828 403.466 A 16.928 16.928 0 0 0 430.945 410.013 A 17.344 17.344 0 0 0 442.523 415.103 A 23.169 23.169 0 0 0 443.98 415.148 Q 453.46 415.148 460.373 408.828 A 29.711 29.711 0 0 0 464.76 403.66 Q 468.489 398.215 471.758 389.609 A 117.473 117.473 0 0 0 472.815 386.708 Z M 705.47 316.003 L 705.47 307.708 L 741.81 301.783 L 741.81 14.223 L 705.47 8.693 L 705.47 0.003 L 829.5 0.003 Q 865.74 0.003 890.444 9.566 A 86.276 86.276 0 0 1 916.4 24.888 Q 944.84 49.773 944.84 96.778 A 124.477 124.477 0 0 1 941.778 125.244 Q 935.508 151.949 916.4 168.668 Q 895.294 187.136 857.655 191.898 A 224.77 224.77 0 0 1 829.5 193.553 L 785.26 193.553 L 785.26 301.783 L 821.6 307.708 L 821.6 316.003 L 705.47 316.003 Z M 1201.195 316.003 L 1201.195 308.103 L 1228.845 304.153 L 1228.845 123.243 L 1201.195 119.293 L 1201.195 111.393 L 1268.345 111.393 L 1268.345 141.808 Q 1293.23 107.838 1324.435 107.838 A 49.584 49.584 0 0 1 1340.196 110.275 A 44.031 44.031 0 0 1 1350.9 115.541 A 25.704 25.704 0 0 1 1359.074 124.11 Q 1361.932 129.113 1362.3 135.532 A 33.702 33.702 0 0 1 1362.355 137.463 A 25.846 25.846 0 0 1 1360.805 146.557 A 23.1 23.1 0 0 1 1355.64 154.646 A 22.449 22.449 0 0 1 1342.258 161.262 A 31.488 31.488 0 0 1 1337.865 161.558 Q 1325.325 161.558 1317.451 151.839 A 32.266 32.266 0 0 1 1317.325 151.683 A 21.108 21.108 0 0 0 1320.48 146.233 A 17.662 17.662 0 0 0 1321.67 139.833 A 16.106 16.106 0 0 0 1320.876 134.668 A 13.408 13.408 0 0 0 1317.127 128.971 A 15.421 15.421 0 0 0 1309.89 125.313 A 22.387 22.387 0 0 0 1305.08 124.823 A 20.143 20.143 0 0 0 1296.819 126.689 Q 1292.508 128.614 1288.095 132.526 A 75.248 75.248 0 0 0 1282.432 138.169 Q 1276.86 144.288 1270.461 153.371 A 255.149 255.149 0 0 0 1268.345 156.423 L 1268.345 304.153 L 1299.945 308.103 L 1299.945 316.003 L 1201.195 316.003 Z M 2110.88 316.003 L 2014.105 316.003 L 2014.105 308.103 L 2043.73 304.153 L 2043.73 11.853 L 2014.105 7.903 L 2014.105 0.003 L 2083.23 0.003 L 2083.23 304.153 L 2110.88 308.103 L 2110.88 316.003 Z M 1400.275 265.443 L 1400.275 123.243 L 1372.23 119.293 L 1372.23 111.393 L 1400.275 111.393 L 1400.275 78.608 L 1439.775 68.733 L 1439.775 111.393 L 1491.125 111.393 L 1491.125 119.293 L 1439.775 123.243 L 1439.775 264.653 A 85.995 85.995 0 0 0 1440.966 279.674 Q 1445.648 305.92 1468.725 306.51 A 41.908 41.908 0 0 0 1469.795 306.523 Q 1476.115 306.523 1481.843 304.548 A 78.013 78.013 0 0 0 1485.5 303.19 Q 1488.724 301.894 1490.928 300.598 Q 1493.677 298.981 1494.704 298.158 A 4.577 4.577 0 0 0 1495.075 297.833 L 1500.21 304.153 Q 1482.435 319.953 1457.55 319.953 Q 1431.48 319.953 1415.878 306.918 A 40.17 40.17 0 0 1 1403.703 288.721 Q 1401.373 281.96 1400.627 273.636 A 91.801 91.801 0 0 1 1400.275 265.443 Z M 1032.238 312.817 A 105.456 105.456 0 0 0 1071.24 319.953 Q 1099.68 319.953 1122.985 306.721 Q 1146.29 293.488 1159.918 269.196 A 102.796 102.796 0 0 0 1169.469 245.761 A 121.835 121.835 0 0 0 1173.545 213.698 A 131.752 131.752 0 0 0 1172.693 198.54 A 105.208 105.208 0 0 0 1159.918 158.398 Q 1146.29 134.303 1122.985 121.071 A 100.04 100.04 0 0 0 1110.242 114.975 A 105.456 105.456 0 0 0 1071.24 107.838 Q 1042.8 107.838 1019.495 121.071 Q 996.19 134.303 982.563 158.398 A 101.399 101.399 0 0 0 972.781 182.55 A 121.659 121.659 0 0 0 968.935 213.698 A 133.003 133.003 0 0 0 969.635 227.483 A 106.916 106.916 0 0 0 982.562 269.196 Q 996.19 293.488 1019.495 306.721 A 100.04 100.04 0 0 0 1032.238 312.817 Z M 1847.913 312.817 A 105.456 105.456 0 0 0 1886.915 319.953 Q 1915.355 319.953 1938.66 306.721 Q 1961.965 293.488 1975.593 269.196 A 102.796 102.796 0 0 0 1985.144 245.761 A 121.835 121.835 0 0 0 1989.22 213.698 A 131.752 131.752 0 0 0 1988.368 198.54 A 105.208 105.208 0 0 0 1975.593 158.398 Q 1961.965 134.303 1938.66 121.071 A 100.04 100.04 0 0 0 1925.917 114.975 A 105.456 105.456 0 0 0 1886.915 107.838 Q 1858.475 107.838 1835.17 121.071 Q 1811.865 134.303 1798.238 158.398 A 101.399 101.399 0 0 0 1788.456 182.55 A 121.659 121.659 0 0 0 1784.61 213.698 A 133.003 133.003 0 0 0 1785.31 227.483 A 106.916 106.916 0 0 0 1798.237 269.196 Q 1811.865 293.488 1835.17 306.721 A 100.04 100.04 0 0 0 1847.913 312.817 Z M 2313.618 312.817 A 105.456 105.456 0 0 0 2352.62 319.953 Q 2381.06 319.953 2404.365 306.721 Q 2427.67 293.488 2441.298 269.196 A 102.796 102.796 0 0 0 2450.849 245.761 A 121.835 121.835 0 0 0 2454.925 213.698 A 131.752 131.752 0 0 0 2454.073 198.54 A 105.208 105.208 0 0 0 2441.298 158.398 Q 2427.67 134.303 2404.365 121.071 A 100.04 100.04 0 0 0 2391.622 114.975 A 105.456 105.456 0 0 0 2352.62 107.838 Q 2324.18 107.838 2300.875 121.071 Q 2277.57 134.303 2263.943 158.398 A 101.399 101.399 0 0 0 2254.161 182.55 A 121.659 121.659 0 0 0 2250.315 213.698 A 133.003 133.003 0 0 0 2251.015 227.483 A 106.916 106.916 0 0 0 2263.942 269.196 Q 2277.57 293.488 2300.875 306.721 A 100.04 100.04 0 0 0 2313.618 312.817 Z M 2225.035 316.003 L 2130.235 316.003 L 2130.235 308.103 L 2157.885 304.153 L 2157.885 123.638 L 2130.235 119.688 L 2130.235 111.788 L 2197.385 111.788 L 2197.385 304.153 L 2225.035 308.103 L 2225.035 316.003 Z M 1130.095 233.448 L 1130.095 193.948 A 136.154 136.154 0 0 0 1128.345 171.436 Q 1125.003 151.529 1115.283 137.661 A 48.174 48.174 0 0 0 1080.022 117.044 A 72.284 72.284 0 0 0 1071.24 116.528 A 63.966 63.966 0 0 0 1052.848 119.025 A 47.016 47.016 0 0 0 1027.197 137.661 A 75.889 75.889 0 0 0 1016.323 161.423 Q 1013.616 171.322 1012.77 182.983 A 151.583 151.583 0 0 0 1012.385 193.948 L 1012.385 233.448 A 136.579 136.579 0 0 0 1014.135 255.984 Q 1017.477 275.935 1027.198 289.933 A 48.094 48.094 0 0 0 1062.458 310.742 A 71.623 71.623 0 0 0 1071.24 311.263 A 63.413 63.413 0 0 0 1089.632 308.743 A 47.041 47.041 0 0 0 1115.282 289.933 A 77.265 77.265 0 0 0 1126.275 265.587 Q 1129.021 255.319 1129.793 243.208 A 153.431 153.431 0 0 0 1130.095 233.448 Z M 1945.77 233.448 L 1945.77 193.948 A 136.154 136.154 0 0 0 1944.02 171.436 Q 1940.678 151.529 1930.958 137.661 A 48.174 48.174 0 0 0 1895.697 117.044 A 72.284 72.284 0 0 0 1886.915 116.528 A 63.966 63.966 0 0 0 1868.523 119.025 A 47.016 47.016 0 0 0 1842.872 137.661 A 75.889 75.889 0 0 0 1831.998 161.423 Q 1829.291 171.322 1828.445 182.983 A 151.583 151.583 0 0 0 1828.06 193.948 L 1828.06 233.448 A 136.579 136.579 0 0 0 1829.81 255.984 Q 1833.152 275.935 1842.873 289.933 A 48.094 48.094 0 0 0 1878.133 310.742 A 71.623 71.623 0 0 0 1886.915 311.263 A 63.413 63.413 0 0 0 1905.307 308.743 A 47.041 47.041 0 0 0 1930.957 289.933 A 77.265 77.265 0 0 0 1941.95 265.587 Q 1944.696 255.319 1945.468 243.208 A 153.431 153.431 0 0 0 1945.77 233.448 Z M 2411.475 233.448 L 2411.475 193.948 A 136.154 136.154 0 0 0 2409.725 171.436 Q 2406.383 151.529 2396.663 137.661 A 48.174 48.174 0 0 0 2361.402 117.044 A 72.284 72.284 0 0 0 2352.62 116.528 A 63.966 63.966 0 0 0 2334.228 119.025 A 47.016 47.016 0 0 0 2308.577 137.661 A 75.889 75.889 0 0 0 2297.703 161.423 Q 2294.996 171.322 2294.15 182.983 A 151.583 151.583 0 0 0 2293.765 193.948 L 2293.765 233.448 A 136.579 136.579 0 0 0 2295.515 255.984 Q 2298.857 275.935 2308.578 289.933 A 48.094 48.094 0 0 0 2343.838 310.742 A 71.623 71.623 0 0 0 2352.62 311.263 A 63.413 63.413 0 0 0 2371.012 308.743 A 47.041 47.041 0 0 0 2396.662 289.933 A 77.265 77.265 0 0 0 2407.655 265.587 Q 2410.401 255.319 2411.173 243.208 A 153.431 153.431 0 0 0 2411.475 233.448 Z M 785.26 184.073 L 823.97 184.073 A 96.292 96.292 0 0 0 853.772 179.856 Q 896.997 165.791 897.045 104.812 A 171.748 171.748 0 0 0 897.045 104.678 L 897.045 88.878 A 123.851 123.851 0 0 0 893.672 58.579 Q 881.345 9.878 823.97 9.878 L 785.26 9.878 L 785.26 184.073 Z M 2172.105 65.573 Q 2161.045 65.573 2153.145 57.871 A 25.165 25.165 0 0 1 2145.249 39.625 A 30.642 30.642 0 0 1 2145.245 39.108 A 26.089 26.089 0 0 1 2147.411 28.378 A 25.225 25.225 0 0 1 2152.947 20.543 A 26.158 26.158 0 0 1 2171.039 13.055 A 34.183 34.183 0 0 1 2172.105 13.038 A 24.721 24.721 0 0 1 2190.04 20.31 A 29.672 29.672 0 0 1 2190.275 20.543 Q 2197.78 28.048 2197.78 39.108 Q 2197.78 50.168 2190.275 57.871 A 24.826 24.826 0 0 1 2179.807 64.444 A 25.73 25.73 0 0 1 2172.105 65.573 Z M 2498.789 313.255 A 22.833 22.833 0 0 0 2515.36 319.953 A 27.799 27.799 0 0 0 2515.974 319.946 A 22.129 22.129 0 0 0 2531.95 313.041 Q 2538.665 306.128 2538.665 296.253 A 28.589 28.589 0 0 0 2538.658 295.639 A 21.777 21.777 0 0 0 2531.95 279.861 A 22.543 22.543 0 0 0 2524.413 274.96 A 24.649 24.649 0 0 0 2515.36 273.343 Q 2505.485 273.343 2498.572 279.861 Q 2491.66 286.378 2491.66 296.253 A 28.018 28.018 0 0 0 2491.662 296.561 A 22.822 22.822 0 0 0 2498.572 313.041 A 27.187 27.187 0 0 0 2498.789 313.255 Z" vector-effect="non-scaling-stroke"/></g></svg>